<svg preserveAspectRatio="xMidYMid meet" viewBox="0 0 13.3375 14" fill="none" xmlns="http://www.w3.org/2000/svg">
<path id="Vector" d="M13.275 6.42909C13.2273 6.0806 12.9043 5.83552 12.5581 5.88485C12.2097 5.93259 11.9654 6.25325 12.0131 6.60174C12.2438 8.29015 11.6861 9.94838 10.483 11.1514C8.37932 13.2551 4.95548 13.2551 2.85258 11.1514C0.748045 9.04685 0.748045 5.62382 2.85258 3.5201C4.63011 1.74257 7.38633 1.47606 9.46052 2.72524L8.41104 2.87323C8.06254 2.92256 7.82066 3.2448 7.86999 3.59332C7.91535 3.91079 8.18747 4.13994 8.49936 4.13994C8.5296 4.13994 8.55903 4.13835 8.59006 4.13358L11.0995 3.77553C11.448 3.7262 11.6899 3.40396 11.6406 3.05544L11.2825 0.545971C11.2332 0.197476 10.911 -0.0404349 10.5624 0.00572141C10.2139 0.0550533 9.97207 0.377295 10.0214 0.72581L10.1535 1.65594C7.58433 0.0868921 4.1558 0.41072 1.95024 2.61791C-0.65008 5.21823 -0.65008 9.4495 1.95024 12.0498C3.25036 13.3499 4.95794 14 6.66528 14C8.37278 14 10.0812 13.3499 11.3803 12.0498C12.869 10.5643 13.5588 8.51538 13.2748 6.42918L13.275 6.42909Z" fill="var(--fill-0, #001424)"/>
</svg>
