<svg preserveAspectRatio="xMidYMid meet" viewBox="0 0 14.5455 20" fill="none" xmlns="http://www.w3.org/2000/svg">
<g id="Vector">
<path d="M9.54545 0L14.5455 5L12.0455 5.45455L9.54545 5L9.09091 2.5L9.54545 0Z" fill="#188038"/>
<path d="M9.54545 5V0H1.36364C0.610227 0 0 0.610227 0 1.36364V18.6364C0 19.3898 0.610227 20 1.36364 20H13.1818C13.9352 20 14.5455 19.3898 14.5455 18.6364V5H9.54545Z" fill="#34A853"/>
<path d="M2.72727 7.72727V14.3182H11.8182V7.72727H2.72727ZM6.70455 13.1818H3.86364V11.5909H6.70455V13.1818ZM6.70455 10.4545H3.86364V8.86364H6.70455V10.4545ZM10.6818 13.1818H7.84091V11.5909H10.6818V13.1818ZM10.6818 10.4545H7.84091V8.86364H10.6818V10.4545Z" fill="var(--fill-0, white)"/>
</g>
</svg>
